<mxfile host="app.diagrams.net" modified="2021-03-14T03:38:25.009Z" agent="5.0 (Windows NT 10.0; WOW64) AppleWebKit/537.36 (KHTML, like Gecko) Chrome/78.0.3904.108 Safari/537.36" etag="D4vBz9WHIwm4qPdqwhY5" version="14.4.8" type="github">
  <diagram id="dh1iSAnI9LNPIimuFHRk" name="第 1 页">
    <mxGraphModel dx="1422" dy="1903" grid="1" gridSize="10" guides="1" tooltips="1" connect="1" arrows="1" fold="1" page="1" pageScale="1" pageWidth="827" pageHeight="1169" math="0" shadow="0">
      <root>
        <mxCell id="0" />
        <mxCell id="1" parent="0" />
        <mxCell id="u6yMv0zxOhqang4DAun9-123" value="" style="html=1;verticalAlign=bottom;endArrow=open;dashed=1;endSize=8;exitX=0;exitY=0.95;" parent="1" source="u6yMv0zxOhqang4DAun9-121" edge="1">
          <mxGeometry relative="1" as="geometry">
            <mxPoint x="744.67" y="1579" as="targetPoint" />
          </mxGeometry>
        </mxCell>
        <mxCell id="u6yMv0zxOhqang4DAun9-3" value="System1 Server" style="rounded=0;whiteSpace=wrap;html=1;verticalAlign=top;fillColor=#CCFF99;" parent="1" vertex="1">
          <mxGeometry x="460" y="-60" width="340" height="80" as="geometry" />
        </mxCell>
        <mxCell id="Or9v4SIIAj_S2g1zX2Sr-3" value="浏览器" style="shape=umlLifeline;perimeter=lifelinePerimeter;whiteSpace=wrap;html=1;container=0;collapsible=0;recursiveResize=0;outlineConnect=0;" parent="1" vertex="1">
          <mxGeometry x="70.33" y="-30" width="99.67" height="2590" as="geometry" />
        </mxCell>
        <mxCell id="Or9v4SIIAj_S2g1zX2Sr-7" value="Nginx" style="shape=umlLifeline;perimeter=lifelinePerimeter;whiteSpace=wrap;html=1;container=0;collapsible=0;recursiveResize=0;outlineConnect=0;" parent="1" vertex="1">
          <mxGeometry x="200" y="-30" width="100" height="2590" as="geometry" />
        </mxCell>
        <mxCell id="Or9v4SIIAj_S2g1zX2Sr-8" value="三方单点登录&lt;br&gt;Filter" style="shape=umlLifeline;perimeter=lifelinePerimeter;whiteSpace=wrap;html=1;container=0;collapsible=0;recursiveResize=0;outlineConnect=0;" parent="1" vertex="1">
          <mxGeometry x="470" y="-30" width="100" height="2590" as="geometry" />
        </mxCell>
        <mxCell id="Or9v4SIIAj_S2g1zX2Sr-9" value="三方单点登录与&lt;br&gt;本系统桥接接口" style="shape=umlLifeline;perimeter=lifelinePerimeter;whiteSpace=wrap;html=1;container=0;collapsible=0;recursiveResize=0;outlineConnect=0;" parent="1" vertex="1">
          <mxGeometry x="580" y="-30" width="100" height="2590" as="geometry" />
        </mxCell>
        <mxCell id="Or9v4SIIAj_S2g1zX2Sr-10" value="三方单点登录&lt;br&gt;鉴权中心" style="shape=umlLifeline;perimeter=lifelinePerimeter;whiteSpace=wrap;html=1;container=0;collapsible=0;recursiveResize=0;outlineConnect=0;" parent="1" vertex="1">
          <mxGeometry x="950" y="-30" width="100" height="2590" as="geometry" />
        </mxCell>
        <mxCell id="u6yMv0zxOhqang4DAun9-16" value="在登录页面，点击通过三方系统登录按钮" style="html=1;verticalAlign=bottom;endArrow=block;" parent="1" edge="1">
          <mxGeometry relative="1" as="geometry">
            <mxPoint x="125" y="270" as="sourcePoint" />
            <mxPoint x="385" y="270" as="targetPoint" />
          </mxGeometry>
        </mxCell>
        <mxCell id="u6yMv0zxOhqang4DAun9-19" value="三方单点登录桥接接口" style="text;html=1;align=center;verticalAlign=middle;resizable=0;points=[];autosize=1;" parent="1" vertex="1">
          <mxGeometry x="180" y="270" width="140" height="20" as="geometry" />
        </mxCell>
        <mxCell id="u6yMv0zxOhqang4DAun9-21" value="" style="html=1;verticalAlign=bottom;endArrow=block;entryX=1;entryY=0;" parent="1" source="Or9v4SIIAj_S2g1zX2Sr-8" target="u6yMv0zxOhqang4DAun9-20" edge="1">
          <mxGeometry relative="1" as="geometry">
            <mxPoint x="185" y="380" as="sourcePoint" />
          </mxGeometry>
        </mxCell>
        <mxCell id="u6yMv0zxOhqang4DAun9-24" value="/cas?service=http://system1/test" style="html=1;verticalAlign=bottom;endArrow=block;entryX=0;entryY=0;" parent="1" source="Or9v4SIIAj_S2g1zX2Sr-3" target="u6yMv0zxOhqang4DAun9-23" edge="1">
          <mxGeometry relative="1" as="geometry">
            <mxPoint x="565" y="440" as="sourcePoint" />
          </mxGeometry>
        </mxCell>
        <mxCell id="u6yMv0zxOhqang4DAun9-25" value="三方系统单点登录的登录页面" style="html=1;verticalAlign=bottom;endArrow=open;dashed=1;endSize=8;exitX=0;exitY=0.95;" parent="1" source="u6yMv0zxOhqang4DAun9-23" target="Or9v4SIIAj_S2g1zX2Sr-3" edge="1">
          <mxGeometry relative="1" as="geometry">
            <mxPoint x="565" y="516" as="targetPoint" />
          </mxGeometry>
        </mxCell>
        <mxCell id="u6yMv0zxOhqang4DAun9-28" value="用户登录" style="html=1;verticalAlign=bottom;endArrow=block;entryX=0;entryY=0;" parent="1" source="Or9v4SIIAj_S2g1zX2Sr-3" target="u6yMv0zxOhqang4DAun9-27" edge="1">
          <mxGeometry relative="1" as="geometry">
            <mxPoint x="565" y="550" as="sourcePoint" />
          </mxGeometry>
        </mxCell>
        <mxCell id="u6yMv0zxOhqang4DAun9-49" value="" style="html=1;verticalAlign=bottom;endArrow=block;entryX=1;entryY=0;" parent="1" source="Or9v4SIIAj_S2g1zX2Sr-10" target="u6yMv0zxOhqang4DAun9-48" edge="1">
          <mxGeometry relative="1" as="geometry">
            <mxPoint x="185" y="630" as="sourcePoint" />
          </mxGeometry>
        </mxCell>
        <mxCell id="u6yMv0zxOhqang4DAun9-53" value="System1&lt;br&gt;Gateway" style="shape=umlLifeline;perimeter=lifelinePerimeter;whiteSpace=wrap;html=1;container=0;collapsible=0;recursiveResize=0;outlineConnect=0;fillColor=#CCFF99;" parent="1" vertex="1">
          <mxGeometry x="340" y="-30" width="100" height="2590" as="geometry" />
        </mxCell>
        <mxCell id="u6yMv0zxOhqang4DAun9-59" value="三方鉴权接口" style="shape=umlLifeline;perimeter=lifelinePerimeter;whiteSpace=wrap;html=1;container=0;collapsible=0;recursiveResize=0;outlineConnect=0;" parent="1" vertex="1">
          <mxGeometry x="690.33" y="-30" width="100" height="2590" as="geometry" />
        </mxCell>
        <mxCell id="u6yMv0zxOhqang4DAun9-81" value="" style="html=1;verticalAlign=bottom;endArrow=block;exitX=1.083;exitY=0.967;exitDx=0;exitDy=0;exitPerimeter=0;" parent="1" source="u6yMv0zxOhqang4DAun9-48" edge="1">
          <mxGeometry relative="1" as="geometry">
            <mxPoint x="305" y="690" as="sourcePoint" />
            <mxPoint x="385" y="648" as="targetPoint" />
          </mxGeometry>
        </mxCell>
        <mxCell id="u6yMv0zxOhqang4DAun9-84" value="" style="html=1;verticalAlign=bottom;endArrow=block;entryX=0;entryY=0;exitX=1.083;exitY=0.996;exitDx=0;exitDy=0;exitPerimeter=0;" parent="1" target="u6yMv0zxOhqang4DAun9-83" edge="1">
          <mxGeometry relative="1" as="geometry">
            <mxPoint x="525.8299999999999" y="880.0000000000002" as="sourcePoint" />
          </mxGeometry>
        </mxCell>
        <mxCell id="u6yMv0zxOhqang4DAun9-87" value="为了保证Gateway鉴权的SessionID&lt;br&gt;与登录页的SessionID一致&lt;br&gt;采用前端登录页发起Gateway鉴权" style="html=1;verticalAlign=bottom;endArrow=block;" parent="1" edge="1" target="5QezqIRn7u9YzMCtvwNX-1">
          <mxGeometry relative="1" as="geometry">
            <mxPoint x="630" y="1060.2" as="sourcePoint" />
            <mxPoint x="395" y="1060.2" as="targetPoint" />
          </mxGeometry>
        </mxCell>
        <mxCell id="u6yMv0zxOhqang4DAun9-92" value="参数中有标志&lt;br&gt;登录页渲染前的拦截器读到标识&lt;br&gt;会发起Gateway鉴权&lt;br&gt;参数包含UUID" style="edgeLabel;html=1;align=center;verticalAlign=middle;resizable=0;points=[];" parent="u6yMv0zxOhqang4DAun9-87" vertex="1" connectable="0">
          <mxGeometry x="0.1561" y="-2" relative="1" as="geometry">
            <mxPoint x="32" y="31.8" as="offset" />
          </mxGeometry>
        </mxCell>
        <mxCell id="u6yMv0zxOhqang4DAun9-90" value="调用后台服务的&lt;br&gt;三方鉴权接口" style="html=1;verticalAlign=bottom;endArrow=block;" parent="1" edge="1">
          <mxGeometry relative="1" as="geometry">
            <mxPoint x="389.17" y="1310" as="sourcePoint" />
            <mxPoint x="734.67" y="1310" as="targetPoint" />
          </mxGeometry>
        </mxCell>
        <mxCell id="u6yMv0zxOhqang4DAun9-105" value="System1&lt;br&gt;用户系统" style="shape=umlLifeline;perimeter=lifelinePerimeter;whiteSpace=wrap;html=1;container=0;collapsible=0;recursiveResize=0;outlineConnect=0;fillColor=#CCFF99;" parent="1" vertex="1">
          <mxGeometry x="820" y="-30" width="100" height="2590" as="geometry" />
        </mxCell>
        <mxCell id="u6yMv0zxOhqang4DAun9-114" value="&lt;span style=&quot;font-size: 12px ; background-color: rgb(248 , 249 , 250)&quot;&gt;查询用户是否存在&lt;/span&gt;" style="html=1;verticalAlign=bottom;endArrow=block;entryX=0;entryY=0;" parent="1" target="u6yMv0zxOhqang4DAun9-113" edge="1">
          <mxGeometry relative="1" as="geometry">
            <mxPoint x="739.67" y="1460" as="sourcePoint" />
          </mxGeometry>
        </mxCell>
        <mxCell id="u6yMv0zxOhqang4DAun9-122" value="新增用户接口" style="html=1;verticalAlign=bottom;endArrow=block;entryX=0;entryY=0;" parent="1" target="u6yMv0zxOhqang4DAun9-121" edge="1">
          <mxGeometry relative="1" as="geometry">
            <mxPoint x="739.67" y="1550" as="sourcePoint" />
          </mxGeometry>
        </mxCell>
        <mxCell id="u6yMv0zxOhqang4DAun9-115" value="" style="html=1;verticalAlign=bottom;endArrow=open;dashed=1;endSize=8;exitX=0;exitY=0.95;" parent="1" source="u6yMv0zxOhqang4DAun9-113" edge="1">
          <mxGeometry relative="1" as="geometry">
            <mxPoint x="744.67" y="1489" as="targetPoint" />
          </mxGeometry>
        </mxCell>
        <mxCell id="u6yMv0zxOhqang4DAun9-139" value="Gateway三方鉴权接口" style="html=1;verticalAlign=bottom;endArrow=open;dashed=1;endSize=8;exitX=1;exitY=0.9;exitDx=0;exitDy=0;exitPerimeter=0;entryX=0.9;entryY=0.04;entryDx=0;entryDy=0;entryPerimeter=0;" parent="1" source="u6yMv0zxOhqang4DAun9-137" target="tfi55ZKblpoJ1w2pQm7T-1" edge="1">
          <mxGeometry relative="1" as="geometry">
            <mxPoint x="609.67" y="1668" as="targetPoint" />
            <mxPoint x="409.67" y="1668" as="sourcePoint" />
          </mxGeometry>
        </mxCell>
        <mxCell id="u6yMv0zxOhqang4DAun9-143" value="&lt;span style=&quot;font-size: 11px ; background-color: rgb(255 , 255 , 255)&quot;&gt;返回&lt;/span&gt;鉴权成功" style="text;html=1;align=center;verticalAlign=middle;resizable=0;points=[];autosize=1;" parent="1" vertex="1">
          <mxGeometry x="210.00000000000003" y="1680" width="90" height="20" as="geometry" />
        </mxCell>
        <mxCell id="u6yMv0zxOhqang4DAun9-20" value="重定向到&lt;br&gt;三方单点登录鉴权中心" style="html=1;points=[];perimeter=orthogonalPerimeter;" parent="1" vertex="1">
          <mxGeometry x="115" y="390" width="10" height="50" as="geometry" />
        </mxCell>
        <mxCell id="u6yMv0zxOhqang4DAun9-48" value="&lt;span style=&quot;font-size: 11px ; background-color: rgb(255 , 255 , 255)&quot;&gt;重定向到&lt;br&gt;&lt;/span&gt;三方单点登录桥接接口&lt;span style=&quot;font-size: 11px ; background-color: rgb(255 , 255 , 255)&quot;&gt;&lt;br&gt;&lt;/span&gt;" style="html=1;points=[];perimeter=orthogonalPerimeter;" parent="1" vertex="1">
          <mxGeometry x="115" y="590" width="10" height="60" as="geometry" />
        </mxCell>
        <mxCell id="u6yMv0zxOhqang4DAun9-80" value="Filter1，获取请求中的Ticket&lt;br&gt;Filter2，验证Ticket的有效性" style="html=1;points=[];perimeter=orthogonalPerimeter;fillColor=#FFFFFF;" parent="1" vertex="1">
          <mxGeometry x="515" y="720" width="10" height="60" as="geometry" />
        </mxCell>
        <mxCell id="u6yMv0zxOhqang4DAun9-83" value="穿过Filter的都视为&lt;br&gt;单点登录鉴权成功&lt;br&gt;生成UUID&lt;br&gt;在Redis中以UUID为key&lt;br&gt;存入鉴权结果" style="html=1;points=[];perimeter=orthogonalPerimeter;fillColor=#FFFFFF;" parent="1" vertex="1">
          <mxGeometry x="625" y="880.2" width="10" height="180" as="geometry" />
        </mxCell>
        <mxCell id="u6yMv0zxOhqang4DAun9-89" value="判断，不是调用HTTP请求鉴权&lt;br&gt;而是用UUID为key&lt;br&gt;从Redis中获取鉴权结果信息&lt;br&gt;获取后发现鉴权成功&lt;br&gt;&lt;br&gt;拼接用户名&lt;br&gt;用户名前加上系统简称" style="html=1;points=[];perimeter=orthogonalPerimeter;fillColor=#FFFFFF;" parent="1" vertex="1">
          <mxGeometry x="735" y="1310" width="10" height="150" as="geometry" />
        </mxCell>
        <mxCell id="u6yMv0zxOhqang4DAun9-116" value="用户不存在&lt;br&gt;则新增用户" style="html=1;points=[];perimeter=orthogonalPerimeter;fillColor=#FFFFFF;" parent="1" vertex="1">
          <mxGeometry x="735" y="1490" width="10" height="60" as="geometry" />
        </mxCell>
        <mxCell id="u6yMv0zxOhqang4DAun9-134" value="" style="html=1;points=[];perimeter=orthogonalPerimeter;fillColor=#FFFFFF;" parent="1" vertex="1">
          <mxGeometry x="735" y="1580" width="10" height="50" as="geometry" />
        </mxCell>
        <mxCell id="u6yMv0zxOhqang4DAun9-136" value="返回Gateway&lt;br&gt;鉴权成功" style="html=1;verticalAlign=bottom;endArrow=open;dashed=1;endSize=8;" parent="1" source="u6yMv0zxOhqang4DAun9-134" target="u6yMv0zxOhqang4DAun9-137" edge="1">
          <mxGeometry x="699.67" y="470" as="geometry">
            <mxPoint x="419.67" y="1637" as="targetPoint" />
            <mxPoint x="689.67" y="1637" as="sourcePoint" />
          </mxGeometry>
        </mxCell>
        <mxCell id="u6yMv0zxOhqang4DAun9-137" value="" style="html=1;points=[];perimeter=orthogonalPerimeter;fillColor=#FFFFFF;" parent="1" vertex="1">
          <mxGeometry x="384.67" y="1630" width="10" height="50" as="geometry" />
        </mxCell>
        <mxCell id="u6yMv0zxOhqang4DAun9-113" value="" style="html=1;points=[];perimeter=orthogonalPerimeter;fillColor=#FFFFFF;" parent="1" vertex="1">
          <mxGeometry x="864.67" y="1460" width="10" height="30" as="geometry" />
        </mxCell>
        <mxCell id="u6yMv0zxOhqang4DAun9-121" value="" style="html=1;points=[];perimeter=orthogonalPerimeter;fillColor=#FFFFFF;" parent="1" vertex="1">
          <mxGeometry x="864.67" y="1550" width="10" height="30" as="geometry" />
        </mxCell>
        <mxCell id="u6yMv0zxOhqang4DAun9-23" value="没有session&lt;br&gt;返回登录页面" style="html=1;points=[];perimeter=orthogonalPerimeter;" parent="1" vertex="1">
          <mxGeometry x="995" y="440" width="10" height="60" as="geometry" />
        </mxCell>
        <mxCell id="u6yMv0zxOhqang4DAun9-27" value="鉴权成功" style="html=1;points=[];perimeter=orthogonalPerimeter;" parent="1" vertex="1">
          <mxGeometry x="995" y="530" width="10" height="60" as="geometry" />
        </mxCell>
        <mxCell id="8rMJmTV3KKsouPYQTct0-5" value="" style="html=1;points=[];perimeter=orthogonalPerimeter;" parent="1" vertex="1">
          <mxGeometry x="245" y="50" width="10" height="40" as="geometry" />
        </mxCell>
        <mxCell id="8rMJmTV3KKsouPYQTct0-6" value="System 1 登录页面" style="html=1;verticalAlign=bottom;endArrow=block;entryX=0;entryY=0;" parent="1" source="Or9v4SIIAj_S2g1zX2Sr-3" target="8rMJmTV3KKsouPYQTct0-5" edge="1">
          <mxGeometry relative="1" as="geometry">
            <mxPoint x="175" y="50" as="sourcePoint" />
          </mxGeometry>
        </mxCell>
        <mxCell id="8rMJmTV3KKsouPYQTct0-7" value="Vue App" style="html=1;verticalAlign=bottom;endArrow=open;dashed=1;endSize=8;exitX=0;exitY=0.95;" parent="1" source="8rMJmTV3KKsouPYQTct0-5" target="Or9v4SIIAj_S2g1zX2Sr-3" edge="1">
          <mxGeometry relative="1" as="geometry">
            <mxPoint x="175" y="126" as="targetPoint" />
          </mxGeometry>
        </mxCell>
        <mxCell id="8rMJmTV3KKsouPYQTct0-8" value="没有session&lt;br&gt;获取用户信息失败" style="html=1;points=[];perimeter=orthogonalPerimeter;" parent="1" vertex="1">
          <mxGeometry x="385" y="160" width="10" height="50" as="geometry" />
        </mxCell>
        <mxCell id="8rMJmTV3KKsouPYQTct0-9" value="前端路由&lt;br&gt;登录页面前的拦截器中&lt;br&gt;通过sessionID&lt;br&gt;到Gateway获取用户信息" style="html=1;verticalAlign=bottom;endArrow=block;entryX=0;entryY=0;" parent="1" source="Or9v4SIIAj_S2g1zX2Sr-3" target="8rMJmTV3KKsouPYQTct0-8" edge="1">
          <mxGeometry relative="1" as="geometry">
            <mxPoint x="665" y="90" as="sourcePoint" />
          </mxGeometry>
        </mxCell>
        <mxCell id="8rMJmTV3KKsouPYQTct0-10" value="" style="html=1;verticalAlign=bottom;endArrow=open;dashed=1;endSize=8;exitX=0;exitY=0.95;" parent="1" source="8rMJmTV3KKsouPYQTct0-8" edge="1">
          <mxGeometry relative="1" as="geometry">
            <mxPoint x="125" y="208" as="targetPoint" />
          </mxGeometry>
        </mxCell>
        <mxCell id="8rMJmTV3KKsouPYQTct0-11" value="获取用户信息失败&lt;br&gt;路由到登录页面" style="html=1;points=[];perimeter=orthogonalPerimeter;" parent="1" vertex="1">
          <mxGeometry x="115.33" y="200" width="10" height="70" as="geometry" />
        </mxCell>
        <mxCell id="8rMJmTV3KKsouPYQTct0-25" value="有session" style="html=1;points=[];perimeter=orthogonalPerimeter;" parent="1" vertex="1">
          <mxGeometry x="385.00000000000006" y="1819.8000000000002" width="10" height="60" as="geometry" />
        </mxCell>
        <mxCell id="8rMJmTV3KKsouPYQTct0-26" value="前端路由&lt;br&gt;登录页面前的拦截器中&lt;br&gt;通过sessionID&lt;br&gt;到Gateway获取用户信息" style="html=1;verticalAlign=bottom;endArrow=block;exitX=0.7;exitY=0.993;exitDx=0;exitDy=0;exitPerimeter=0;entryX=0.167;entryY=0.017;entryDx=0;entryDy=0;entryPerimeter=0;" parent="1" source="tfi55ZKblpoJ1w2pQm7T-1" target="8rMJmTV3KKsouPYQTct0-25" edge="1">
          <mxGeometry relative="1" as="geometry">
            <mxPoint x="170" y="1819.8000000000002" as="sourcePoint" />
            <mxPoint x="670" y="1819.8000000000002" as="targetPoint" />
          </mxGeometry>
        </mxCell>
        <mxCell id="8rMJmTV3KKsouPYQTct0-27" value="返回用户信息" style="html=1;verticalAlign=bottom;endArrow=open;dashed=1;endSize=8;entryX=0.967;entryY=0.057;entryDx=0;entryDy=0;entryPerimeter=0;" parent="1" source="8rMJmTV3KKsouPYQTct0-25" target="8rMJmTV3KKsouPYQTct0-28" edge="1">
          <mxGeometry relative="1" as="geometry">
            <mxPoint x="160" y="1872.7999999999997" as="targetPoint" />
            <mxPoint x="720" y="1873.7999999999997" as="sourcePoint" />
          </mxGeometry>
        </mxCell>
        <mxCell id="8rMJmTV3KKsouPYQTct0-28" value="获取用户信息成功&lt;br&gt;拦截器直接路由到首页" style="html=1;points=[];perimeter=orthogonalPerimeter;" parent="1" vertex="1">
          <mxGeometry x="115.33" y="1869.7999999999997" width="10" height="70" as="geometry" />
        </mxCell>
        <mxCell id="tfi55ZKblpoJ1w2pQm7T-1" value="登录页前的拦截器中&lt;br&gt;如果Gateway鉴权失败&lt;br&gt;则调用一下登出接口&lt;br&gt;然后渲染登录页&lt;br&gt;&lt;br&gt;否则则请求用户信息" style="html=1;points=[];perimeter=orthogonalPerimeter;" parent="1" vertex="1">
          <mxGeometry x="115" y="1670" width="10" height="149.8" as="geometry" />
        </mxCell>
        <mxCell id="3CqKeIGA3ldGCkDwYFLd-2" value="三方单点登录桥接接口&lt;br&gt;由三方淡定登录Filter拦截&lt;br&gt;Gateway配置白名单放过" style="html=1;points=[];perimeter=orthogonalPerimeter;" parent="1" vertex="1">
          <mxGeometry x="385" y="260" width="10" height="80" as="geometry" />
        </mxCell>
        <mxCell id="3CqKeIGA3ldGCkDwYFLd-6" value="" style="html=1;verticalAlign=bottom;endArrow=block;entryX=0;entryY=0;" parent="1" source="u6yMv0zxOhqang4DAun9-15" edge="1">
          <mxGeometry relative="1" as="geometry">
            <mxPoint x="455" y="340" as="sourcePoint" />
            <mxPoint x="525" y="340" as="targetPoint" />
          </mxGeometry>
        </mxCell>
        <mxCell id="3CqKeIGA3ldGCkDwYFLd-9" value="三方单点登录桥接接口&lt;br&gt;由三方淡定登录Filter拦截&lt;br&gt;Gateway配置白名单放过" style="html=1;points=[];perimeter=orthogonalPerimeter;" parent="1" vertex="1">
          <mxGeometry x="385" y="640" width="10" height="80" as="geometry" />
        </mxCell>
        <mxCell id="3CqKeIGA3ldGCkDwYFLd-11" value="" style="html=1;verticalAlign=bottom;endArrow=block;entryX=0;entryY=0;" parent="1" source="u6yMv0zxOhqang4DAun9-53" edge="1">
          <mxGeometry relative="1" as="geometry">
            <mxPoint x="455" y="720" as="sourcePoint" />
            <mxPoint x="515" y="720" as="targetPoint" />
          </mxGeometry>
        </mxCell>
        <mxCell id="u6yMv0zxOhqang4DAun9-15" value="Filter1，获取请求中的Ticket&lt;br&gt;获取失败，拦截" style="html=1;points=[];perimeter=orthogonalPerimeter;" parent="1" vertex="1">
          <mxGeometry x="515" y="340" width="10" height="50" as="geometry" />
        </mxCell>
        <mxCell id="3CqKeIGA3ldGCkDwYFLd-13" value="" style="html=1;verticalAlign=bottom;endArrow=block;entryX=0;entryY=0;" parent="1" source="u6yMv0zxOhqang4DAun9-53" target="u6yMv0zxOhqang4DAun9-15" edge="1">
          <mxGeometry relative="1" as="geometry">
            <mxPoint x="389.5" y="340" as="sourcePoint" />
            <mxPoint x="525" y="340" as="targetPoint" />
          </mxGeometry>
        </mxCell>
        <mxCell id="yCwKrxc6vqiMpQ9KjseP-1" value="验证Ticket" style="html=1;points=[];perimeter=orthogonalPerimeter;" parent="1" vertex="1">
          <mxGeometry x="995" y="780" width="10" height="50" as="geometry" />
        </mxCell>
        <mxCell id="yCwKrxc6vqiMpQ9KjseP-2" value="验证Ticket的有效性&lt;br&gt;&lt;span style=&quot;font-size: 11px&quot;&gt;/cas/serviceValidate?&lt;/span&gt;&lt;span style=&quot;font-size: 11px&quot;&gt;ticket=123&amp;amp;service=http://system1/test&lt;/span&gt;" style="html=1;verticalAlign=bottom;endArrow=block;entryX=0;entryY=0;exitX=1;exitY=0.967;exitDx=0;exitDy=0;exitPerimeter=0;" parent="1" source="u6yMv0zxOhqang4DAun9-80" target="yCwKrxc6vqiMpQ9KjseP-1" edge="1">
          <mxGeometry relative="1" as="geometry">
            <mxPoint x="925" y="780" as="sourcePoint" />
          </mxGeometry>
        </mxCell>
        <mxCell id="yCwKrxc6vqiMpQ9KjseP-3" value="&lt;span style=&quot;font-size: 12px ; background-color: rgb(248 , 249 , 250)&quot;&gt;返回Ticket验证信息&lt;/span&gt;" style="html=1;verticalAlign=bottom;endArrow=open;dashed=1;endSize=8;exitX=0;exitY=0.95;" parent="1" source="yCwKrxc6vqiMpQ9KjseP-1" target="yCwKrxc6vqiMpQ9KjseP-6" edge="1">
          <mxGeometry relative="1" as="geometry">
            <mxPoint x="925" y="856" as="targetPoint" />
          </mxGeometry>
        </mxCell>
        <mxCell id="yCwKrxc6vqiMpQ9KjseP-6" value="Filter2，检验返回的Ticket验证信息" style="html=1;points=[];perimeter=orthogonalPerimeter;" parent="1" vertex="1">
          <mxGeometry x="515" y="820" width="10" height="60" as="geometry" />
        </mxCell>
        <mxCell id="5QezqIRn7u9YzMCtvwNX-1" value="重定向到登录页" style="html=1;points=[];perimeter=orthogonalPerimeter;" vertex="1" parent="1">
          <mxGeometry x="115" y="1060" width="10" height="60" as="geometry" />
        </mxCell>
        <mxCell id="5QezqIRn7u9YzMCtvwNX-7" value="" style="html=1;points=[];perimeter=orthogonalPerimeter;" vertex="1" parent="1">
          <mxGeometry x="245" y="1120" width="10" height="40" as="geometry" />
        </mxCell>
        <mxCell id="5QezqIRn7u9YzMCtvwNX-8" value="System 1 登录页面" style="html=1;verticalAlign=bottom;endArrow=block;entryX=0;entryY=0;" edge="1" parent="1" target="5QezqIRn7u9YzMCtvwNX-7">
          <mxGeometry relative="1" as="geometry">
            <mxPoint x="119.66499999999996" y="1120" as="sourcePoint" />
          </mxGeometry>
        </mxCell>
        <mxCell id="5QezqIRn7u9YzMCtvwNX-9" value="Vue App" style="html=1;verticalAlign=bottom;endArrow=open;dashed=1;endSize=8;exitX=0;exitY=0.95;" edge="1" parent="1" source="5QezqIRn7u9YzMCtvwNX-7" target="5QezqIRn7u9YzMCtvwNX-10">
          <mxGeometry relative="1" as="geometry">
            <mxPoint x="140" y="1158" as="targetPoint" />
          </mxGeometry>
        </mxCell>
        <mxCell id="5QezqIRn7u9YzMCtvwNX-10" value="&lt;span style=&quot;font-size: 11px ; background-color: rgb(255 , 255 , 255)&quot;&gt;登录页渲染前的拦截器&lt;br&gt;根据URL参数标识&lt;/span&gt;&lt;br style=&quot;font-size: 11px&quot;&gt;&lt;span style=&quot;font-size: 11px ; background-color: rgb(255 , 255 , 255)&quot;&gt;发起Gateway鉴权&lt;/span&gt;&lt;br style=&quot;font-size: 11px&quot;&gt;&lt;span style=&quot;font-size: 11px ; background-color: rgb(255 , 255 , 255)&quot;&gt;参数包含UUID&lt;/span&gt;" style="html=1;points=[];perimeter=orthogonalPerimeter;" vertex="1" parent="1">
          <mxGeometry x="115.66" y="1160" width="10" height="100" as="geometry" />
        </mxCell>
        <mxCell id="5QezqIRn7u9YzMCtvwNX-16" value="" style="html=1;points=[];perimeter=orthogonalPerimeter;" vertex="1" parent="1">
          <mxGeometry x="385" y="1260" width="10" height="50" as="geometry" />
        </mxCell>
        <mxCell id="5QezqIRn7u9YzMCtvwNX-17" value="" style="html=1;verticalAlign=bottom;endArrow=block;entryX=0;entryY=0;" edge="1" target="5QezqIRn7u9YzMCtvwNX-16" parent="1" source="5QezqIRn7u9YzMCtvwNX-10">
          <mxGeometry relative="1" as="geometry">
            <mxPoint x="190" y="1260" as="sourcePoint" />
          </mxGeometry>
        </mxCell>
      </root>
    </mxGraphModel>
  </diagram>
</mxfile>
